<?xml version="1.0"?>
<svg version="1.1" xmlns="http://www.w3.org/2000/svg" xmlns:xlink="http://www.w3.org/1999/xlink" width="640" height="480">
    <desc iVinci="yes" version="4.6" gridStep="20" showGrid="no" snapToGrid="no" codePlatform="0"/>
    <g id="Layer1" name="Layer 1" opacity="1">
        <g id="Shape1">
            <desc shapeID="1" type="0" basicInfo-basicType="4" basicInfo-roundedRectRadius="12" basicInfo-polygonSides="6" basicInfo-starPoints="5" bounding="rect(-88.5,-21,177,42)" text="" font-familyName="Helvetica" font-pixelSize="20" font-bold="0" font-underline="0" font-alignment="1" strokeStyle="0" markerStart="0" markerEnd="0" shadowEnabled="0" shadowOffsetX="0" shadowOffsetY="2" shadowBlur="4" shadowOpacity="160" blurEnabled="0" blurRadius="4" transform="matrix(1,0,0,1,405.248,231.491)" pers-center="0,0" pers-size="0,0" pers-start="0,0" pers-end="0,0" locked="0" mesh="" flag=""/>
            <path id="shapePath1" d="M316.748,231.491 C316.748,219.893 356.371,210.491 405.248,210.491 C454.126,210.491 493.748,219.893 493.748,231.491 C493.748,243.089 454.126,252.491 405.248,252.491 C356.371,252.491 316.748,243.089 316.748,231.491 Z" style="stroke:#323232;stroke-opacity:1;stroke-width:1;stroke-linejoin:miter;stroke-miterlimit:2;stroke-linecap:round;fill-rule:evenodd;fill:url(#radialGradientFill1);fill-opacity:1;"/><defs><radialGradient id="radialGradientFill1" gradientUnits="userSpaceOnUse" cx="316.748" cy="231.491" r="177" fx="316.748" fy="231.491"><stop offset="0" stop-color="#8c9649" stop-opacity="1"/><stop offset="0.988701" stop-color="#ffffff" stop-opacity="1"/></radialGradient></defs>
        </g>
        <g id="Shape2">
            <desc shapeID="2" type="0" basicInfo-basicType="4" basicInfo-roundedRectRadius="12" basicInfo-polygonSides="6" basicInfo-starPoints="5" bounding="rect(-88.5,-21,177,42)" text="" font-familyName="Helvetica" font-pixelSize="20" font-bold="0" font-underline="0" font-alignment="1" strokeStyle="0" markerStart="0" markerEnd="0" shadowEnabled="0" shadowOffsetX="0" shadowOffsetY="2" shadowBlur="4" shadowOpacity="160" blurEnabled="0" blurRadius="4" transform="matrix(-0.999176,0.0405979,-0.0405979,-0.999176,218,233.783)" pers-center="0,0" pers-size="0,0" pers-start="0,0" pers-end="0,0" locked="0" mesh="" flag=""/>
            <path id="shapePath2" d="M306.427,230.19 C306.898,241.778 267.689,252.781 218.853,254.765 C170.016,256.75 130.044,248.964 129.573,237.375 C129.102,225.787 168.311,214.784 217.147,212.8 C265.984,210.816 305.956,218.601 306.427,230.19 Z" style="stroke:#323232;stroke-opacity:1;stroke-width:1;stroke-linejoin:miter;stroke-miterlimit:2;stroke-linecap:round;fill-rule:evenodd;fill:url(#radialGradientFill2);fill-opacity:1;"/><defs><radialGradient id="radialGradientFill2" gradientUnits="userSpaceOnUse" cx="306.427" cy="230.19" r="177" fx="306.427" fy="230.19"><stop offset="0" stop-color="#8c9649" stop-opacity="1"/><stop offset="0.988701" stop-color="#ffffff" stop-opacity="1"/></radialGradient></defs>
        </g>
        <g id="Shape3">
            <desc shapeID="3" type="0" basicInfo-basicType="4" basicInfo-roundedRectRadius="12" basicInfo-polygonSides="6" basicInfo-starPoints="5" bounding="rect(-88.5,-21,177,42)" text="" font-familyName="Helvetica" font-pixelSize="20" font-bold="0" font-underline="0" font-alignment="1" strokeStyle="0" markerStart="0" markerEnd="0" shadowEnabled="0" shadowOffsetX="0" shadowOffsetY="2" shadowBlur="4" shadowOpacity="160" blurEnabled="0" blurRadius="4" transform="matrix(-0.014612,-0.999893,0.999893,-0.014612,309.712,143)" pers-center="0,0" pers-size="0,0" pers-start="0,0" pers-end="0,0" locked="0" mesh="" flag=""/>
            <path id="shapePath3" d="M311.005,231.491 C299.409,231.66 289.429,192.179 288.714,143.307 C288,94.4349 296.822,54.6789 308.419,54.5094 C320.016,54.34 329.996,93.8212 330.71,142.693 C331.424,191.565 322.602,231.321 311.005,231.491 Z" style="stroke:#323232;stroke-opacity:1;stroke-width:1;stroke-linejoin:miter;stroke-miterlimit:2;stroke-linecap:round;fill-rule:evenodd;fill:url(#radialGradientFill3);fill-opacity:1;"/><defs><radialGradient id="radialGradientFill3" gradientUnits="userSpaceOnUse" cx="311.005" cy="231.491" r="177" fx="311.005" fy="231.491"><stop offset="0" stop-color="#8c9649" stop-opacity="1"/><stop offset="0.988701" stop-color="#ffffff" stop-opacity="1"/></radialGradient></defs>
        </g>
        <g id="Shape4">
            <desc shapeID="4" type="0" basicInfo-basicType="4" basicInfo-roundedRectRadius="12" basicInfo-polygonSides="6" basicInfo-starPoints="5" bounding="rect(-88.5,-21,177,42)" text="" font-familyName="Helvetica" font-pixelSize="20" font-bold="0" font-underline="0" font-alignment="1" strokeStyle="0" markerStart="0" markerEnd="0" shadowEnabled="0" shadowOffsetX="0" shadowOffsetY="2" shadowBlur="4" shadowOpacity="160" blurEnabled="0" blurRadius="4" transform="matrix(0.0204076,0.999792,-1.00182,0.020449,312.712,320.974)" pers-center="0,0" pers-size="0,0" pers-start="0,0" pers-end="0,0" locked="0" mesh="" flag=""/>
            <path id="shapePath4" d="M310.906,232.493 C322.525,232.256 332.753,271.678 333.75,320.545 C334.748,369.412 326.137,409.219 314.518,409.456 C302.899,409.693 292.671,370.271 291.674,321.404 C290.676,272.537 299.287,232.73 310.906,232.493 Z" style="stroke:#323232;stroke-opacity:1;stroke-width:1;stroke-linejoin:miter;stroke-miterlimit:2;stroke-linecap:round;fill-rule:evenodd;fill:url(#radialGradientFill4);fill-opacity:1;"/><defs><radialGradient id="radialGradientFill4" gradientUnits="userSpaceOnUse" cx="310.906" cy="232.493" r="177" fx="310.906" fy="232.493"><stop offset="0" stop-color="#8c9649" stop-opacity="1"/><stop offset="0.988701" stop-color="#ffffff" stop-opacity="1"/></radialGradient></defs>
        </g>
        <g id="Shape5">
            <desc shapeID="5" type="0" basicInfo-basicType="4" basicInfo-roundedRectRadius="12" basicInfo-polygonSides="6" basicInfo-starPoints="5" bounding="rect(-88.5,-21,177,42)" text="" font-familyName="Helvetica" font-pixelSize="20" font-bold="0" font-underline="0" font-alignment="1" strokeStyle="0" markerStart="0" markerEnd="0" shadowEnabled="0" shadowOffsetX="0" shadowOffsetY="2" shadowBlur="4" shadowOpacity="160" blurEnabled="0" blurRadius="4" transform="matrix(0.705377,0.708833,-0.708833,0.705377,379.077,298.484)" pers-center="0,0" pers-size="0,0" pers-start="0,0" pers-end="0,0" locked="0" mesh="" flag=""/>
            <path id="shapePath5" d="M316.651,235.753 C324.872,227.572 359.486,249.026 393.962,283.671 C428.439,318.317 449.724,353.035 441.503,361.216 C433.282,369.397 398.668,347.943 364.191,313.297 C329.715,278.651 308.43,243.934 316.651,235.753 Z" style="stroke:#323232;stroke-opacity:1;stroke-width:1;stroke-linejoin:miter;stroke-miterlimit:2;stroke-linecap:round;fill-rule:evenodd;fill:url(#radialGradientFill5);fill-opacity:1;"/><defs><radialGradient id="radialGradientFill5" gradientUnits="userSpaceOnUse" cx="316.651" cy="235.753" r="177" fx="316.651" fy="235.753"><stop offset="0" stop-color="#599652" stop-opacity="1"/><stop offset="0.988701" stop-color="#ffffff" stop-opacity="1"/></radialGradient></defs>
        </g>
        <g id="Shape6">
            <desc shapeID="6" type="0" basicInfo-basicType="4" basicInfo-roundedRectRadius="12" basicInfo-polygonSides="6" basicInfo-starPoints="5" bounding="rect(-88.5,-21,177,42)" text="" font-familyName="Helvetica" font-pixelSize="20" font-bold="0" font-underline="0" font-alignment="1" strokeStyle="0" markerStart="0" markerEnd="0" shadowEnabled="0" shadowOffsetX="0" shadowOffsetY="2" shadowBlur="4" shadowOpacity="160" blurEnabled="0" blurRadius="4" transform="matrix(-0.733572,-0.679612,0.679612,-0.733572,245.372,167.373)" pers-center="0,0" pers-size="0,0" pers-start="0,0" pers-end="0,0" locked="0" mesh="" flag=""/>
            <path id="shapePath6" d="M310.293,227.519 C302.411,236.027 266.955,215.995 231.1,182.778 C195.245,149.56 172.569,115.735 180.451,107.227 C188.333,98.7194 223.789,118.75 259.644,151.968 C295.499,185.185 318.175,219.011 310.293,227.519 Z" style="stroke:#323232;stroke-opacity:1;stroke-width:1;stroke-linejoin:miter;stroke-miterlimit:2;stroke-linecap:round;fill-rule:evenodd;fill:url(#radialGradientFill6);fill-opacity:1;"/><defs><radialGradient id="radialGradientFill6" gradientUnits="userSpaceOnUse" cx="316.651" cy="235.753" r="177" fx="316.651" fy="235.753"><stop offset="0" stop-color="#599652" stop-opacity="1"/><stop offset="0.988701" stop-color="#ffffff" stop-opacity="1"/></radialGradient></defs>
        </g>
        <g id="Shape7">
            <desc shapeID="7" type="0" basicInfo-basicType="4" basicInfo-roundedRectRadius="12" basicInfo-polygonSides="6" basicInfo-starPoints="5" bounding="rect(-88.5,-21,177,42)" text="" font-familyName="Helvetica" font-pixelSize="20" font-bold="0" font-underline="0" font-alignment="1" strokeStyle="0" markerStart="0" markerEnd="0" shadowEnabled="0" shadowOffsetX="0" shadowOffsetY="2" shadowBlur="4" shadowOpacity="160" blurEnabled="0" blurRadius="4" transform="matrix(0.69845,-0.715659,0.715659,0.69845,377.302,165.623)" pers-center="0,0" pers-size="0,0" pers-start="0,0" pers-end="0,0" locked="0" mesh="" flag=""/>
            <path id="shapePath7" d="M315.489,228.959 C307.189,220.858 328.135,185.935 362.273,150.956 C396.411,115.976 430.815,94.1868 439.115,102.287 C447.415,110.388 426.469,145.311 392.331,180.291 C358.192,215.27 323.789,237.06 315.489,228.959 Z" style="stroke:#323232;stroke-opacity:1;stroke-width:1;stroke-linejoin:miter;stroke-miterlimit:2;stroke-linecap:round;fill-rule:evenodd;fill:url(#radialGradientFill7);fill-opacity:1;"/><defs><radialGradient id="radialGradientFill7" gradientUnits="userSpaceOnUse" cx="316.651" cy="235.753" r="177" fx="316.651" fy="235.753"><stop offset="0" stop-color="#599652" stop-opacity="1"/><stop offset="0.988701" stop-color="#ffffff" stop-opacity="1"/></radialGradient></defs>
        </g>
        <g id="Shape8">
            <desc shapeID="8" type="0" basicInfo-basicType="4" basicInfo-roundedRectRadius="12" basicInfo-polygonSides="6" basicInfo-starPoints="5" bounding="rect(-88.5,-21,177,42)" text="" font-familyName="Helvetica" font-pixelSize="20" font-bold="0" font-underline="0" font-alignment="1" strokeStyle="0" markerStart="0" markerEnd="0" shadowEnabled="0" shadowOffsetX="0" shadowOffsetY="2" shadowBlur="4" shadowOpacity="160" blurEnabled="0" blurRadius="4" transform="matrix(-0.69429,0.719695,-0.721155,-0.695698,250.375,296.011)" pers-center="0,0" pers-size="0,0" pers-start="0,0" pers-end="0,0" locked="0" mesh="" flag=""/>
            <path id="shapePath8" d="M311.82,232.318 C320.184,240.387 299.455,275.444 265.52,310.621 C231.585,345.797 197.295,367.773 188.931,359.704 C180.567,351.635 201.296,316.578 235.231,281.401 C269.166,246.225 303.456,224.249 311.82,232.318 Z" style="stroke:#323232;stroke-opacity:1;stroke-width:1;stroke-linejoin:miter;stroke-miterlimit:2;stroke-linecap:round;fill-rule:evenodd;fill:url(#radialGradientFill8);fill-opacity:1;"/><defs><radialGradient id="radialGradientFill8" gradientUnits="userSpaceOnUse" cx="316.651" cy="235.753" r="177" fx="316.651" fy="235.753"><stop offset="0" stop-color="#599652" stop-opacity="1"/><stop offset="0.988701" stop-color="#ffffff" stop-opacity="1"/></radialGradient></defs>
        </g>
        <g id="Shape9">
            <desc shapeID="9" type="0" basicInfo-basicType="4" basicInfo-roundedRectRadius="12" basicInfo-polygonSides="6" basicInfo-starPoints="5" bounding="rect(-88.5,-21,177,42)" text="" font-familyName="Helvetica" font-pixelSize="20" font-bold="0" font-underline="0" font-alignment="1" strokeStyle="0" markerStart="0" markerEnd="0" shadowEnabled="0" shadowOffsetX="0" shadowOffsetY="2" shadowBlur="4" shadowOpacity="160" blurEnabled="0" blurRadius="4" transform="matrix(0.3802,0.924904,-0.924904,0.3802,348.351,317.137)" pers-center="0,0" pers-size="0,0" pers-start="0,0" pers-end="0,0" locked="0" mesh="" flag=""/>
            <path id="shapePath9" d="M314.704,235.283 C325.431,230.873 349.191,263.946 367.774,309.152 C386.357,354.359 392.726,394.581 381.999,398.991 C371.272,403.4 347.511,370.328 328.928,325.121 C310.345,279.914 303.977,239.692 314.704,235.283 Z" style="stroke:#323232;stroke-opacity:1;stroke-width:1;stroke-linejoin:miter;stroke-miterlimit:2;stroke-linecap:round;fill-rule:evenodd;fill:url(#radialGradientFill9);fill-opacity:1;"/><defs><radialGradient id="radialGradientFill9" gradientUnits="userSpaceOnUse" cx="314.704" cy="235.283" r="177" fx="314.704" fy="235.283"><stop offset="0" stop-color="#599652" stop-opacity="1"/><stop offset="0.988701" stop-color="#ffffff" stop-opacity="1"/></radialGradient></defs>
        </g>
        <g id="Shape10">
            <desc shapeID="10" type="0" basicInfo-basicType="4" basicInfo-roundedRectRadius="12" basicInfo-polygonSides="6" basicInfo-starPoints="5" bounding="rect(-88.5,-21,177,42)" text="" font-familyName="Helvetica" font-pixelSize="20" font-bold="0" font-underline="0" font-alignment="1" strokeStyle="0" markerStart="0" markerEnd="0" shadowEnabled="0" shadowOffsetX="0" shadowOffsetY="2" shadowBlur="4" shadowOpacity="160" blurEnabled="0" blurRadius="4" transform="matrix(-0.417435,-0.908707,0.908707,-0.417435,275.04,144.821)" pers-center="0,0" pers-size="0,0" pers-start="0,0" pers-end="0,0" locked="0" mesh="" flag=""/>
            <path id="shapePath10" d="M311.983,225.242 C301.444,230.083 276.36,198.002 255.957,153.587 C235.554,109.172 227.558,69.242 238.097,64.4006 C248.636,59.5592 273.72,91.6399 294.123,136.055 C314.526,180.47 322.522,220.4 311.983,225.242 Z" style="stroke:#323232;stroke-opacity:1;stroke-width:1;stroke-linejoin:miter;stroke-miterlimit:2;stroke-linecap:round;fill-rule:evenodd;fill:url(#radialGradientFill10);fill-opacity:1;"/><defs><radialGradient id="radialGradientFill10" gradientUnits="userSpaceOnUse" cx="314.704" cy="235.283" r="177" fx="314.704" fy="235.283"><stop offset="0" stop-color="#599652" stop-opacity="1"/><stop offset="0.988701" stop-color="#ffffff" stop-opacity="1"/></radialGradient></defs>
        </g>
        <g id="Shape11">
            <desc shapeID="11" type="0" basicInfo-basicType="4" basicInfo-roundedRectRadius="12" basicInfo-polygonSides="6" basicInfo-starPoints="5" bounding="rect(-88.5,-21,177,42)" text="" font-familyName="Helvetica" font-pixelSize="20" font-bold="0" font-underline="0" font-alignment="1" strokeStyle="0" markerStart="0" markerEnd="0" shadowEnabled="0" shadowOffsetX="0" shadowOffsetY="2" shadowBlur="4" shadowOpacity="160" blurEnabled="0" blurRadius="4" transform="matrix(0.91925,-0.393674,0.393674,0.91925,397.585,193.722)" pers-center="0,0" pers-size="0,0" pers-start="0,0" pers-end="0,0" locked="0" mesh="" flag=""/>
            <path id="shapePath11" d="M316.232,228.562 C311.666,217.9 344.388,193.659 389.318,174.417 C434.248,155.176 474.373,148.22 478.939,158.882 C483.505,169.543 450.783,193.784 405.852,213.026 C360.922,232.268 320.797,239.223 316.232,228.562 Z" style="stroke:#323232;stroke-opacity:1;stroke-width:1;stroke-linejoin:miter;stroke-miterlimit:2;stroke-linecap:round;fill-rule:evenodd;fill:url(#radialGradientFill11);fill-opacity:1;"/><defs><radialGradient id="radialGradientFill11" gradientUnits="userSpaceOnUse" cx="314.704" cy="235.283" r="177" fx="314.704" fy="235.283"><stop offset="0" stop-color="#599652" stop-opacity="1"/><stop offset="0.988701" stop-color="#ffffff" stop-opacity="1"/></radialGradient></defs>
        </g>
        <g id="Shape12">
            <desc shapeID="12" type="0" basicInfo-basicType="4" basicInfo-roundedRectRadius="12" basicInfo-polygonSides="6" basicInfo-starPoints="5" bounding="rect(-88.5,-21,177,42)" text="" font-familyName="Helvetica" font-pixelSize="20" font-bold="0" font-underline="0" font-alignment="1" strokeStyle="0" markerStart="0" markerEnd="0" shadowEnabled="0" shadowOffsetX="0" shadowOffsetY="2" shadowBlur="4" shadowOpacity="160" blurEnabled="0" blurRadius="4" transform="matrix(-0.916953,0.398996,-0.399805,-0.918813,230.406,265.571)" pers-center="0,0" pers-size="0,0" pers-start="0,0" pers-end="0,0" locked="0" mesh="" flag=""/>
            <path id="shapePath12" d="M311.556,230.26 C316.193,240.916 283.62,265.364 238.801,284.866 C193.983,304.368 153.892,311.539 149.255,300.882 C144.618,290.226 177.192,265.778 222.01,246.276 C266.828,226.774 306.919,219.604 311.556,230.26 Z" style="stroke:#323232;stroke-opacity:1;stroke-width:1;stroke-linejoin:miter;stroke-miterlimit:2;stroke-linecap:round;fill-rule:evenodd;fill:url(#radialGradientFill12);fill-opacity:1;"/><defs><radialGradient id="radialGradientFill12" gradientUnits="userSpaceOnUse" cx="314.704" cy="235.283" r="177" fx="314.704" fy="235.283"><stop offset="0" stop-color="#599652" stop-opacity="1"/><stop offset="0.988701" stop-color="#ffffff" stop-opacity="1"/></radialGradient></defs>
        </g>
        <g id="Shape13">
            <desc shapeID="13" type="0" basicInfo-basicType="4" basicInfo-roundedRectRadius="12" basicInfo-polygonSides="6" basicInfo-starPoints="5" bounding="rect(-88.5,-21,177,42)" text="" font-familyName="Helvetica" font-pixelSize="20" font-bold="0" font-underline="0" font-alignment="1" strokeStyle="0" markerStart="0" markerEnd="0" shadowEnabled="0" shadowOffsetX="0" shadowOffsetY="2" shadowBlur="4" shadowOpacity="160" blurEnabled="0" blurRadius="4" transform="matrix(0.929406,0.369058,-0.369058,0.929406,399.877,265.574)" pers-center="0,0" pers-size="0,0" pers-start="0,0" pers-end="0,0" locked="0" mesh="" flag=""/>
            <path id="shapePath13" d="M317.624,232.912 C321.905,222.133 362.2,228.018 407.627,246.056 C453.054,264.095 486.409,287.456 482.129,298.236 C477.849,309.015 437.553,303.13 392.126,285.091 C346.7,267.053 313.344,243.692 317.624,232.912 Z" style="stroke:#323232;stroke-opacity:1;stroke-width:1;stroke-linejoin:miter;stroke-miterlimit:2;stroke-linecap:round;fill-rule:evenodd;fill:url(#radialGradientFill13);fill-opacity:1;"/><defs><radialGradient id="radialGradientFill13" gradientUnits="userSpaceOnUse" cx="317.624" cy="232.912" r="177" fx="317.624" fy="232.912"><stop offset="0" stop-color="#8c9649" stop-opacity="1"/><stop offset="0.988701" stop-color="#ffffff" stop-opacity="1"/></radialGradient></defs>
        </g>
        <g id="Shape14">
            <desc shapeID="14" type="0" basicInfo-basicType="4" basicInfo-roundedRectRadius="12" basicInfo-polygonSides="6" basicInfo-starPoints="5" bounding="rect(-88.5,-21,177,42)" text="" font-familyName="Helvetica" font-pixelSize="20" font-bold="0" font-underline="0" font-alignment="1" strokeStyle="0" markerStart="0" markerEnd="0" shadowEnabled="0" shadowOffsetX="0" shadowOffsetY="2" shadowBlur="4" shadowOpacity="160" blurEnabled="0" blurRadius="4" transform="matrix(-0.943623,-0.331021,0.331021,-0.943623,225.001,198.598)" pers-center="0,0" pers-size="0,0" pers-start="0,0" pers-end="0,0" locked="0" mesh="" flag=""/>
            <path id="shapePath14" d="M308.512,227.894 C304.673,238.838 264.171,234.594 218.05,218.414 C171.928,202.235 137.651,180.247 141.491,169.303 C145.33,158.359 185.831,162.603 231.953,178.782 C278.074,194.962 312.351,216.95 308.512,227.894 Z" style="stroke:#323232;stroke-opacity:1;stroke-width:1;stroke-linejoin:miter;stroke-miterlimit:2;stroke-linecap:round;fill-rule:evenodd;fill:url(#radialGradientFill14);fill-opacity:1;"/><defs><radialGradient id="radialGradientFill14" gradientUnits="userSpaceOnUse" cx="308.512" cy="227.894" r="177" fx="308.512" fy="227.894"><stop offset="0" stop-color="#8c9649" stop-opacity="1"/><stop offset="0.988701" stop-color="#ffffff" stop-opacity="1"/></radialGradient></defs>
        </g>
        <g id="Shape15">
            <desc shapeID="15" type="0" basicInfo-basicType="4" basicInfo-roundedRectRadius="12" basicInfo-polygonSides="6" basicInfo-starPoints="5" bounding="rect(-88.5,-21,177,42)" text="" font-familyName="Helvetica" font-pixelSize="20" font-bold="0" font-underline="0" font-alignment="1" strokeStyle="0" markerStart="0" markerEnd="0" shadowEnabled="0" shadowOffsetX="0" shadowOffsetY="2" shadowBlur="4" shadowOpacity="160" blurEnabled="0" blurRadius="4" transform="matrix(0.355438,-0.9347,0.9347,0.355438,343.743,148.071)" pers-center="0,0" pers-size="0,0" pers-start="0,0" pers-end="0,0" locked="0" mesh="" flag=""/>
            <path id="shapePath15" d="M312.287,230.792 C301.446,226.67 306.742,186.293 324.114,140.607 C341.487,94.9217 364.359,61.2281 375.199,65.3505 C386.04,69.4728 380.745,109.85 363.372,155.536 C345.999,201.221 323.127,234.915 312.287,230.792 Z" style="stroke:#323232;stroke-opacity:1;stroke-width:1;stroke-linejoin:miter;stroke-miterlimit:2;stroke-linecap:round;fill-rule:evenodd;fill:url(#radialGradientFill15);fill-opacity:1;"/><defs><radialGradient id="radialGradientFill15" gradientUnits="userSpaceOnUse" cx="312.287" cy="230.792" r="177" fx="312.287" fy="230.792"><stop offset="0" stop-color="#8c9649" stop-opacity="1"/><stop offset="0.988701" stop-color="#ffffff" stop-opacity="1"/></radialGradient></defs>
        </g>
        <g id="Shape16">
            <desc shapeID="16" type="0" basicInfo-basicType="4" basicInfo-roundedRectRadius="12" basicInfo-polygonSides="6" basicInfo-starPoints="5" bounding="rect(-88.5,-21,177,42)" text="" font-familyName="Helvetica" font-pixelSize="20" font-bold="0" font-underline="0" font-alignment="1" strokeStyle="0" markerStart="0" markerEnd="0" shadowEnabled="0" shadowOffsetX="0" shadowOffsetY="2" shadowBlur="4" shadowOpacity="160" blurEnabled="0" blurRadius="4" transform="matrix(-0.350014,0.936745,-0.938644,-0.350724,280.848,314.589)" pers-center="0,0" pers-size="0,0" pers-start="0,0" pers-end="0,0" locked="0" mesh="" flag=""/>
            <path id="shapePath16" d="M311.825,231.687 C322.711,235.755 317.668,276.169 300.56,321.954 C283.452,367.74 260.759,401.559 249.872,397.491 C238.986,393.423 244.029,353.009 261.137,307.224 C278.245,261.439 300.938,227.62 311.825,231.687 Z" style="stroke:#323232;stroke-opacity:1;stroke-width:1;stroke-linejoin:miter;stroke-miterlimit:2;stroke-linecap:round;fill-rule:evenodd;fill:url(#radialGradientFill16);fill-opacity:1;"/><defs><radialGradient id="radialGradientFill16" gradientUnits="userSpaceOnUse" cx="311.825" cy="231.687" r="177" fx="311.825" fy="231.687"><stop offset="0" stop-color="#8c9649" stop-opacity="1"/><stop offset="0.988701" stop-color="#ffffff" stop-opacity="1"/></radialGradient></defs>
        </g>
    </g>
</svg>
